<svg width="22" height="22" viewBox="0 0 22 22" fill="none" xmlns="http://www.w3.org/2000/svg">
<path d="M11.4375 20.625H2.21718C2.10618 20.6265 1.996 20.6057 1.89316 20.5639C1.79032 20.5221 1.69689 20.4601 1.61839 20.3816C1.53989 20.3031 1.47791 20.2097 1.43611 20.1068C1.39431 20.004 1.37353 19.8938 1.375 19.7828V10.5625C1.375 7.89376 2.43515 5.33432 4.32223 3.44724C6.20932 1.56015 8.76875 0.5 11.4375 0.5V0.5C12.7589 0.5 14.0674 0.760274 15.2882 1.26596C16.5091 1.77165 17.6184 2.51285 18.5528 3.44724C19.4871 4.38163 20.2283 5.49091 20.734 6.71175C21.2397 7.93259 21.5 9.24107 21.5 10.5625V10.5625C21.5 11.8839 21.2397 13.1924 20.734 14.4133C20.2283 15.6341 19.4871 16.7434 18.5528 17.6778C17.6184 18.6121 16.5091 19.3533 15.2882 19.859C14.0674 20.3647 12.7589 20.625 11.4375 20.625V20.625Z" stroke="#3A3A3A" stroke-linecap="round" stroke-linejoin="round"/>
</svg>
